# xmcd
#
# Track frame offsets:
#	150
#	16477
#	32635
#	48380
#	59615
#	78375
#	93180
#	107478
#	126088
#	140251
#	153510
#	170305
#	181028
#	198287
#	212640
#	225737
#
# Disc length: 3210 seconds
#
# Revision: 0
# Processed by: cddbd v1.5.2PL0 Copyright (c) Steve Scherf et al.
# Submitted via: EZCDAudioConverter 2.1.1.1
#
DISCID=c90c8810
DTITLE=Giwrgos Katsaros - Romantico Cd 1
DYEAR=2015
DGENRE=Instrumental
TTITLE0=Tu T'En Vas
TTITLE1=Na Moyna Theos (Alma Corazon Y Vida)
TTITLE2=O Thlefwnhths
TTITLE3=Oti Kai Na Ginei Thymhsoy
TTITLE4=Kardia Moy Monh
TTITLE5=Tha Yparxw
TTITLE6=Tha Patheis Erwta
TTITLE7=Pyretos Toy Erwta
TTITLE8=Se Ksexasa
TTITLE9=Agsphse Me ( Mama Leone)
TTITLE10=As Kanoyme Apopse Mian Arxh
TTITLE11=Oyte Syzhthsh
TTITLE12=Senorita Por Favor
TTITLE13=Shmera
TTITLE14=Ta Matia Soy
TTITLE15=To Granazi
EXTD=
EXTT0=
EXTT1=
EXTT2=
EXTT3=
EXTT4=
EXTT5=
EXTT6=
EXTT7=
EXTT8=
EXTT9=
EXTT10=
EXTT11=
EXTT12=
EXTT13=
EXTT14=
EXTT15=
PLAYORDER=
